#!OML:ASF I:\golf\golf\golf 2\Subject 1\2002-09-07\Subject1.ASF
:FULLY-SPECIFIED
:DEGREES
347
root -1.66015 17.0246 -2.08347 78.8642 26.469 18.4682
lowerback 17.4586 2.91084 4.59735
upperback 12.8841 4.64322 11.772
thorax 3.5894 2.14711 9.5507
lowerneck -13.321 -8.32623 -1.2516
upperneck -3.00038 -11.1589 -2.09011
head 1.2071 -5.73939 -1.00167
rclavicle -5.08889e-014 -1.145e-013
rhumerus 51.6979 4.94237 -29.0777
rradius 26.64
rwrist -12.4843
rhand -14.2464 8.05787
rfingers 7.12502
rthumb 11.8915 -21.5844
lclavicle -5.08889e-014 -1.145e-013
lhumerus -13.7576 -29.1358 95.5564
lradius 96.8443
lwrist 21.426
lhand -14.2903 30.5745
lfingers 7.12502
lthumb 11.8492 60.2192
rfemur -100.39 -9.43868 9.89901
rtibia 45.6232
rfoot -6.82162 -16.3027
rtoes 22.7479
lfemur -55.6613 -0.587053 -16.3608
ltibia 34.3024
lfoot 7.85003 -13.1701
ltoes -15.1553
348
root -1.65381 17.0584 -2.09062 78.0065 26.4612 17.9315
lowerback 17.6911 2.98961 4.45759
upperback 12.8689 4.74572 11.7131
thorax 3.42892 2.19304 9.53057
lowerneck -13.3508 -8.27648 -1.38067
upperneck -2.85456 -11.0613 -1.9507
head 1.2766 -5.68425 -0.941297
rclavicle -4.45278e-014 -4.13472e-014
rhumerus 50.7782 5.8341 -29.3774
rradius 26.8525
rwrist -13.6531
rhand -13.863 7.93982
rfingers 7.12502
rthumb 12.2612 -21.6807
lclavicle -4.45278e-014 -4.13472e-014
lhumerus -13.985 -28.9534 95.6353
lradius 96.7519
lwrist 21.3945
lhand -14.2169 30.6687
lfingers 7.12502
lthumb 11.92 60.3093
rfemur -99.6743 -8.95162 10.1696
rtibia 45.3336
rfoot -6.82946 -15.9789
rtoes 22.5234
lfemur -55.3336 -0.432171 -16.3048
ltibia 34.3464
lfoot 6.68836 -13.0679
ltoes -16.0402
349
root -1.64985 17.0827 -2.10517 77.2128 26.3654 17.4564
lowerback 17.9533 3.0066 4.26207
upperback 12.8521 4.76316 11.5814
thorax 3.26356 2.19721 9.47199
lowerneck -13.3754 -8.19916 -1.45701
upperneck -2.8918 -10.9418 -1.88249
head 1.27774 -5.62019 -0.902485
rclavicle -3.81667e-014 -3.49861e-014
rhumerus 50.046 6.44823 -30.4381
rradius 26.8697
rwrist -13.9457
rhand -13.1254 7.9582
rfingers 7.12502
rthumb 12.9723 -21.6185
lclavicle -3.81667e-014 -3.49861e-014
lhumerus -14.0258 -28.6944 95.5346
lradius 96.4537
lwrist 21.3635
lhand -14.4076 30.5948
lfingers 7.12502
lthumb 11.736 60.246
rfemur -99.0281 -8.49391 10.2718
rtibia 45.0436
rfoot -6.65357 -15.8065
rtoes 21.8351
lfemur -55.0456 -0.353547 -16.2864
ltibia 34.3679
lfoot 5.55749 -12.6888
ltoes -15.7019
350
root -1.64353 17.1084 -2.12245 76.4129 26.3164 17.0625
lowerback 18.2368 2.97451 4.15356
upperback 12.8175 4.73335 11.4523
thorax 3.08157 2.18393 9.37281
lowerneck -13.5114 -8.12262 -1.51224
upperneck -2.82435 -10.8196 -1.84945
head 1.32941 -5.55657 -0.887253
rclavicle 4.77083e-014 2.22639e-014
rhumerus 49.3004 7.08293 -31.5695
rradius 26.8295
rwrist -13.9479
rhand -12.4954 8.11622
rfingers 7.12502
rthumb 13.5795 -21.4209
lclavicle 4.77083e-014 2.22639e-014
lhumerus -14.0219 -28.4759 95.4277
lradius 95.9752
lwrist 21.2795
lhand -14.5101 30.1316
lfingers 7.12502
lthumb 11.6372 59.7885
rfemur -98.2981 -8.11282 10.395
rtibia 44.7159
rfoot -6.33526 -15.6841
rtoes 20.8099
lfemur -54.7262 -0.258528 -16.3509
ltibia 34.3565
lfoot 4.29236 -12.3918
ltoes -16.0974
351
root -1.62957 17.1433 -2.13659 75.5164 26.4185 16.6555
lowerback 18.4905 2.95128 4.22827
upperback 12.8144 4.73618 11.4142
thorax 2.95577 2.19228 9.27174
lowerneck -13.6389 -8.07628 -1.44002
upperneck -2.75813 -10.7575 -2.03574
head 1.35949 -5.53008 -0.961747
rclavicle -1.59028e-014 3.97569e-014
rhumerus 48.3963 7.79437 -32.211
rradius 26.9449
rwrist -14.2226
rhand -12.1446 8.24441
rfingers 7.12502
rthumb 13.9176 -21.2698
lclavicle -1.59028e-014 3.97569e-014
lhumerus -14.0962 -28.328 95.4555
lradius 95.5586
lwrist 21.0819
lhand -14.3826 30.0349
lfingers 7.12502
lthumb 11.7602 59.6848
rfemur -97.4253 -7.77038 10.7665
rtibia 44.3843
rfoot -5.98803 -15.4841
rtoes 19.4967
lfemur -54.2991 -0.23289 -16.2749
ltibia 34.2989
lfoot 2.88733 -11.928
ltoes -17.1697
352
root -1.61562 17.1891 -2.14214 74.2872 26.3989 15.9821
lowerback 18.9369 3.10892 4.19517
upperback 12.8071 4.97109 11.4422
thorax 2.68157 2.30596 9.25378
lowerneck -13.2817 -8.14045 -1.54505
upperneck -2.86367 -10.8373 -2.1479
head 1.26151 -5.56808 -0.960846
rclavicle -2.54444e-014 3.18055e-014
rhumerus 47.1777 8.66089 -32.2746
rradius 27.2484
rwrist -14.9701
rhand -11.997 8.12952
rfingers 7.12502
rthumb 14.0599 -21.3749
lclavicle -2.54444e-014 3.18055e-014
lhumerus -14.4134 -28.3144 95.7828
lradius 95.1855
lwrist 20.9204
lhand -14.3 30.1987
lfingers 7.12502
lthumb 11.8398 59.8439
rfemur -96.3259 -7.18916 11.259
rtibia 44.0134
rfoot -5.77659 -15.0816
rtoes 17.9604
lfemur -53.511 -0.0379984 -16.174
ltibia 34.1709
lfoot 1.41526 -11.312
ltoes -18.2965
353
root -1.59667 17.2345 -2.15067 72.9349 26.3435 15.5526
lowerback 19.6527 3.1708 4.20964
upperback 12.7906 5.12141 11.4512
thorax 2.2783 2.38345 9.18657
lowerneck -12.6838 -8.21369 -1.60492
upperneck -3.26671 -10.9569 -2.27287
head 1.02176 -5.62356 -0.948608
rclavicle 2.8625e-014 6.36111e-015
rhumerus 45.9731 9.68473 -32.1415
rradius 27.5354
rwrist -15.7742
rhand -12.3827 7.95793
rfingers 7.12502
rthumb 13.6882 -21.5719
lclavicle 2.8625e-014 6.36111e-015
lhumerus -14.7422 -28.306 96.1472
lradius 94.7466
lwrist 20.838
lhand -14.3111 30.169
lfingers 7.12502
lthumb 11.8291 59.8149
rfemur -94.9169 -6.81911 11.5191
rtibia 43.6113
rfoot -5.86484 -14.7325
rtoes 17.4056
lfemur -52.4425 -0.160503 -16.1265
ltibia 33.9882
lfoot 0.0934771 -10.5587
ltoes -19.7182
354
root -1.58663 17.2828 -2.15132 71.1005 26.3371 14.9374
lowerback 21.0167 3.21039 4.16147
upperback 13.0049 5.27568 11.4172
thorax 1.80982 2.45639 9.08996
lowerneck -12.8782 -8.1364 -1.33673
upperneck -3.51632 -10.8946 -2.48355
head 0.947659 -5.59945 -1.05299
rclavicle 9.54166e-014 1.15295e-013
rhumerus 45.2143 10.4474 -32.5432
rradius 27.6561
rwrist -16.0273
rhand -13.006 7.88313
rfingers 7.12502
rthumb 13.0874 -21.6862
lclavicle 9.54166e-014 1.15295e-013
lhumerus -14.6358 -28.1083 96.0015
lradius 94.2599
lwrist 20.7177
lhand -14.2439 30.209
lfingers 7.12502
lthumb 11.894 59.8511
rfemur -93.0808 -6.16299 11.6438
rtibia 43.1748
rfoot -6.12511 -14.5491
rtoes 19.1315
lfemur -50.8846 0.0412523 -16.0293
ltibia 33.7334
lfoot -0.91226 -9.82225
ltoes -20.0899
355
root -1.56938 17.3276 -2.15745 69.4008 26.3206 14.5787
lowerback 22.4063 3.158 4.21198
upperback 13.1338 5.33959 11.3534
thorax 1.26721 2.49241 8.9164
lowerneck -13.348 -8.07171 -1.42416
upperneck -3.25306 -10.7671 -2.3369
head 1.12803 -5.53477 -1.02331
rclavicle 2.8625e-014 -8.66701e-014
rhumerus 44.328 11.1419 -33.1064
rradius 27.7815
rwrist -15.9926
rhand -13.4603 7.76606
rfingers 7.12502
rthumb 12.6495 -21.8309
lclavicle 2.8625e-014 -8.66701e-014
lhumerus -14.6464 -27.9701 95.9463
lradius 93.804
lwrist 20.5675
lhand -14.2075 30.3127
lfingers 7.12502
lthumb 11.929 59.9529
rfemur -91.2614 -5.83701 11.78
rtibia 42.7363
rfoot -6.3689 -14.1693
rtoes 20.69
lfemur -49.3484 0.0332134 -16.0604
ltibia 33.3969
lfoot -1.74688 -9.02585
ltoes -19.9201
356
root -1.54142 17.383 -2.15614 67.3666 26.0877 14.1188
lowerback 24.0595 3.20084 4.21352
upperback 13.2319 5.53747 11.2933
thorax 0.55111 2.58929 8.73103
lowerneck -13.5399 -8.09951 -1.91912
upperneck -2.80386 -10.7028 -1.93488
head 1.35892 -5.48931 -0.845845
rclavicle -9.22361e-014 -4.85035e-014
rhumerus 43.139 11.9714 -33.4458
rradius 27.9595
rwrist -16.1216
rhand -13.9547 7.76133
rfingers 7.12502
rthumb 12.1728 -21.8645
lclavicle -9.22361e-014 -4.85035e-014
lhumerus -14.8985 -27.9932 96.2059
lradius 93.2933
lwrist 20.3711
lhand -14.159 30.2148
lfingers 7.12502
lthumb 11.9758 59.8522
rfemur -89.1378 -5.48677 12.1531
rtibia 42.3536
rfoot -6.5759 -13.4696
rtoes 20.1306
lfemur -47.3648 0.0704296 -16.2502
ltibia 32.9539
lfoot -2.61962 -8.12456
ltoes -20.2307
357
root -1.51438 17.4403 -2.14504 64.9896 25.6336 13.1769
lowerback 25.7254 3.4555 3.96668
upperback 13.4754 5.92307 11.2212
thorax -0.0375969 2.75962 8.63091
lowerneck -13.8207 -8.10743 -2.24034
upperneck -2.41603 -10.6383 -1.6721
head 1.5697 -5.44895 -0.73967
rclavicle -2.54444e-014 3.49861e-014
rhumerus 42.0553 12.7459 -33.8443
rradius 28.1163
rwrist -16.3578
rhand -14.4069 7.93067
rfingers 7.12502
rthumb 11.7367 -21.7205
lclavicle -2.54444e-014 3.49861e-014
lhumerus -15.0921 -27.9569 96.3642
lradius 92.7184
lwrist 20.0833
lhand -14.0197 30.0869
lfingers 7.12502
lthumb 12.1101 59.7165
rfemur -86.9153 -4.61626 12.5834
rtibia 42.0288
rfoot -6.7879 -12.829
rtoes 19.1439
lfemur -45.1011 0.518429 -16.349
ltibia 32.445
lfoot -3.47013 -7.12945
ltoes -20.2771
358
root -1.49084 17.4808 -2.15189 63.3674 25.4208 13.1546
lowerback 26.9439 3.37974 3.82573
upperback 13.5759 5.89749 11.1095
thorax -0.495254 2.74389 8.5483
lowerneck -14.1311 -8.10018 -2.27892
upperneck -2.29907 -10.6062 -1.58351
head 1.67053 -5.43128 -0.724488
rclavicle -1.27222e-014 4.6118e-014
rhumerus 41.0454 13.4081 -34.3971
rradius 28.2637
rwrist -16.4398
rhand -14.7624 7.97471
rfingers 7.12502
rthumb 11.3939 -21.6957
lclavicle -1.27222e-014 4.6118e-014
lhumerus -15.2484 -27.8972 96.4087
lradius 92.2299
lwrist 19.8756
lhand -14.0583 30.1892
lfingers 7.12502
lthumb 12.0729 59.8209
rfemur -85.0241 -4.51525 12.4769
rtibia 41.7884
rfoot -6.58962 -12.5293
rtoes 15.4944
lfemur -43.4359 0.333116 -16.7008
ltibia 31.9102
lfoot -4.06338 -6.43361
ltoes -20.6256
359
root -1.4657 17.5177 -2.16118 61.8401 25.2291 13.1308
lowerback 27.9274 3.32072 3.68492
upperback 13.6471 5.87185 11.0185
thorax -0.871153 2.7285 8.50055
lowerneck -14.1517 -8.08245 -2.1062
upperneck -2.50111 -10.6124 -1.70588
head 1.58973 -5.43785 -0.783583
rclavicle 2.54444e-014 -7.55382e-014
rhumerus 39.9575 14.0313 -34.956
rradius 28.3942
rwrist -16.3096
rhand -15.3233 8.04745
rfingers 7.12502
rthumb 10.8529 -21.6521
lclavicle 2.54444e-014 -7.55382e-014
lhumerus -15.383 -27.8915 96.4788
lradius 91.6918
lwrist 19.7101
lhand -14.1876 30.6661
lfingers 7.12502
lthumb 11.9482 60.3051
rfemur -83.2456 -4.46353 12.4747
rtibia 41.5568
rfoot -6.24923 -12.2355
rtoes 11.5145
lfemur -41.9197 0.130107 -17.0082
ltibia 31.4332
lfoot -4.55408 -5.8223
ltoes -20.519
360
root -1.44298 17.5603 -2.17596 60.141 25.3094 12.9528
lowerback 29.1636 3.18987 3.83163
upperback 13.609 5.85945 10.9757
thorax -1.45984 2.72909 8.32694
lowerneck -13.9363 -8.04476 -2.01033
upperneck -2.54891 -10.5811 -1.70486
head 1.53134 -5.41967 -0.783833
rclavicle 5.08889e-014 -2.8625e-014
rhumerus 38.738 14.7937 -35.5353
rradius 28.5825
rwrist -16.2852
rhand -16.0072 8.28334
rfingers 7.12502
rthumb 10.1932 -21.4497
lclavicle 5.08889e-014 -2.8625e-014
lhumerus -15.7101 -27.8399 96.607
lradius 91.0225
lwrist 19.4406
lhand -14.2241 30.9701
lfingers 7.12502
lthumb 11.913 60.6112
rfemur -81.3439 -4.33506 12.6938
rtibia 41.3253
rfoot -6.50638 -12.169
rtoes 13.5819
lfemur -40.3595 -0.334266 -16.8377
ltibia 31.0723
lfoot -5.02189 -5.02212
ltoes -20.1182
